<svg width="467" height="752" viewBox="0 0 467 752" fill="none" xmlns="http://www.w3.org/2000/svg">
<g clip-path="url(#clip0_49_1842)">
<path fill-rule="evenodd" clip-rule="evenodd" d="M192.369 165C179.046 165.01 168.263 175.889 168.273 189.295C168.263 202.701 179.056 213.58 192.379 213.59H216.485V189.305C216.495 175.899 205.702 165.02 192.369 165C192.379 165 192.379 165 192.369 165V165ZM192.369 229.8H128.106C114.783 229.81 103.99 240.689 104 254.095C103.98 267.501 114.773 278.38 128.096 278.4H192.369C205.692 278.39 216.485 267.511 216.475 254.105C216.485 240.689 205.692 229.81 192.369 229.8V229.8Z" fill="#3BBBF2"/>
<path fill-rule="evenodd" clip-rule="evenodd" d="M345.021 254.095C345.031 240.689 334.239 229.81 320.915 229.8C307.592 229.81 296.799 240.689 296.809 254.095V278.4H320.915C334.239 278.39 345.031 267.511 345.021 254.095ZM280.748 254.095V189.295C280.758 175.899 269.975 165.02 256.652 165C243.329 165.01 232.536 175.889 232.546 189.295V254.095C232.526 267.501 243.319 278.38 256.642 278.4C269.966 278.39 280.758 267.511 280.748 254.095Z" fill="#38B40D"/>
<path fill-rule="evenodd" clip-rule="evenodd" d="M256.642 408C269.965 407.99 280.758 397.111 280.748 383.705C280.758 370.299 269.965 359.42 256.642 359.41H232.536V383.705C232.526 397.101 243.319 407.98 256.642 408ZM256.642 343.19H320.915C334.238 343.18 345.031 332.301 345.021 318.895C345.041 305.489 334.248 294.61 320.925 294.59H256.652C243.329 294.6 232.536 305.479 232.546 318.885C232.536 332.301 243.319 343.18 256.642 343.19V343.19Z" fill="#EEDA70"/>
<path fill-rule="evenodd" clip-rule="evenodd" d="M104 318.895C103.99 332.301 114.783 343.18 128.106 343.19C141.429 343.18 152.222 332.301 152.212 318.895V294.6H128.106C114.783 294.61 103.99 305.489 104 318.895ZM168.273 318.895V383.695C168.253 397.101 179.046 407.98 192.369 408C205.693 407.99 216.485 397.11 216.475 383.705V318.914C216.495 305.509 205.702 294.629 192.379 294.61C179.046 294.61 168.263 305.489 168.273 318.895C168.273 318.905 168.273 318.895 168.273 318.895Z" fill="white"/>
<path d="M69.2695 563.91C64.8361 563.91 61.5461 563.21 59.3995 561.81C57.2995 560.363 56.2495 557.68 56.2495 553.76C56.2495 552.967 56.2961 552.01 56.3895 550.89C56.5295 549.77 56.7161 548.417 56.9495 546.83C57.3228 544.543 57.6028 542.513 57.7895 540.74C57.9761 538.92 58.0695 536.937 58.0695 534.79C58.0695 533.39 58.0228 532.037 57.9295 530.73C57.8828 529.423 57.7661 528.187 57.5795 527.02C56.8795 527.16 56.4128 527.23 56.1795 527.23C55.8061 527.23 55.5495 527.16 55.4095 527.02C55.2695 526.833 55.1995 526.507 55.1995 526.04C55.1995 525.06 55.3161 524.103 55.5495 523.17C55.7828 522.19 56.1095 521.397 56.5295 520.79C57.3228 519.67 58.5361 519.017 60.1695 518.83C61.4295 518.69 62.9695 518.55 64.7895 518.41C66.6561 518.27 68.5461 518.177 70.4595 518.13C72.4195 518.037 74.1695 517.99 75.7095 517.99C80.0028 517.99 82.5461 518.083 83.3395 518.27C84.5528 518.457 85.1595 519.11 85.1595 520.23C85.1595 521.63 84.6695 522.913 83.6895 524.08C83.1761 524.78 82.6628 525.293 82.1495 525.62C81.6361 525.9 80.9128 526.017 79.9795 525.97C77.9261 525.83 76.1295 525.737 74.5895 525.69C73.0495 525.643 71.9761 525.62 71.3695 525.62C70.2961 525.62 69.1761 525.643 68.0095 525.69C66.8895 525.737 65.7461 525.807 64.5795 525.9C64.5795 527.533 64.5095 529.283 64.3695 531.15C64.2295 533.017 64.0428 534.977 63.8095 537.03C65.9561 536.89 68.3828 536.797 71.0895 536.75C73.7961 536.657 76.1995 536.61 78.2995 536.61C79.2328 536.61 79.8628 536.703 80.1895 536.89C80.5628 537.077 80.7495 537.567 80.7495 538.36C80.7495 539.107 80.5395 539.947 80.1195 540.88C79.7461 541.767 79.2328 542.537 78.5795 543.19C78.2995 543.47 77.9961 543.703 77.6695 543.89C77.3428 544.03 76.8995 544.077 76.3395 544.03C74.3328 543.937 72.0461 543.867 69.4795 543.82C66.9595 543.773 64.7428 543.773 62.8295 543.82C62.6428 544.893 62.5028 545.873 62.4095 546.76C62.3161 547.647 62.2695 548.44 62.2695 549.14C62.2695 551.707 62.9228 553.503 64.2295 554.53C65.5361 555.557 67.6828 556.07 70.6695 556.07C72.4895 556.07 74.2395 555.907 75.9195 555.58C77.6461 555.253 79.3961 554.647 81.1695 553.76C81.8228 553.387 82.3128 553.2 82.6395 553.2C83.1528 553.2 83.6428 553.573 84.1095 554.32C84.6228 555.02 84.8795 555.79 84.8795 556.63C84.8795 557.657 84.4828 558.637 83.6895 559.57C82.9428 560.457 81.9395 561.227 80.6795 561.88C79.2328 562.533 77.5061 563.023 75.4995 563.35C73.4928 563.723 71.4161 563.91 69.2695 563.91ZM98.0105 563.98C96.7505 563.98 95.6538 563.607 94.7205 562.86C93.8338 562.067 93.2971 560.62 93.1105 558.52C93.0171 556.933 92.8071 555.183 92.4805 553.27C92.2005 551.357 91.8271 549.537 91.3605 547.81C90.8938 546.083 90.3571 544.73 89.7505 543.75C89.4238 543.237 89.0505 542.863 88.6305 542.63C88.2571 542.35 87.6738 542.163 86.8805 542.07C86.3671 542.023 86.0171 541.86 85.8305 541.58C85.6438 541.3 85.5505 540.857 85.5505 540.25C85.5505 538.337 86.0638 536.937 87.0905 536.05C88.1638 535.117 89.3771 534.65 90.7305 534.65C92.1305 534.65 93.2971 535.117 94.2305 536.05C95.1638 536.937 95.8871 538.127 96.4005 539.62C96.9138 541.113 97.2638 542.77 97.4505 544.59C97.6838 546.363 97.8005 548.16 97.8005 549.98C97.8005 550.727 97.7771 551.52 97.7305 552.36C97.7305 553.153 97.7305 553.83 97.7305 554.39C97.7305 554.903 97.8238 555.3 98.0105 555.58C98.2438 555.86 98.6638 556 99.2705 556C100.017 556 100.88 555.79 101.86 555.37C102.84 554.903 103.797 554.25 104.73 553.41C105.71 552.57 106.504 551.59 107.11 550.47C107.764 549.303 108.09 548.02 108.09 546.62C108.09 545.827 107.95 544.987 107.67 544.1C107.437 543.213 107.04 542.467 106.48 541.86C105.92 541.253 105.5 540.787 105.22 540.46C104.987 540.087 104.87 539.667 104.87 539.2C104.87 538.36 105.244 537.59 105.99 536.89C106.784 536.19 107.694 535.63 108.72 535.21C109.794 534.79 110.727 534.58 111.52 534.58C112.874 534.58 113.737 535.14 114.11 536.26C114.484 537.38 114.67 538.617 114.67 539.97C114.67 542.537 114.204 545.22 113.27 548.02C112.337 550.82 111.077 553.433 109.49 555.86C107.904 558.287 106.107 560.247 104.1 561.74C102.14 563.233 100.11 563.98 98.0105 563.98ZM130.097 563.91C126.551 563.91 123.774 562.907 121.767 560.9C119.807 558.847 118.827 556 118.827 552.36C118.827 549.047 119.551 546.037 120.997 543.33C122.444 540.623 124.381 538.477 126.807 536.89C129.281 535.257 131.987 534.44 134.927 534.44C137.727 534.44 139.967 535.14 141.647 536.54C143.327 537.893 144.167 539.713 144.167 542C144.167 543.82 143.607 545.5 142.487 547.04C141.367 548.58 139.874 549.817 138.007 550.75C136.141 551.637 134.064 552.08 131.777 552.08C128.977 552.08 126.691 551.45 124.917 550.19C124.964 552.337 125.687 554.063 127.087 555.37C128.534 556.677 130.377 557.33 132.617 557.33C133.971 557.33 135.347 557.097 136.747 556.63C138.194 556.117 139.431 555.44 140.457 554.6C141.111 554.04 141.717 553.76 142.277 553.76C142.744 553.76 143.117 553.923 143.397 554.25C143.724 554.53 143.887 554.903 143.887 555.37C143.887 556.397 143.001 557.75 141.227 559.43C138.101 562.417 134.391 563.91 130.097 563.91ZM131.147 547.46C132.827 547.46 134.227 547.11 135.347 546.41C136.467 545.71 137.027 544.823 137.027 543.75C137.027 542.863 136.654 542.187 135.907 541.72C135.161 541.207 134.134 540.95 132.827 540.95C131.101 540.95 129.584 541.417 128.277 542.35C127.017 543.237 126.107 544.497 125.547 546.13C126.201 546.55 127.041 546.877 128.067 547.11C129.094 547.343 130.121 547.46 131.147 547.46Z" fill="#3BBBF2"/>
<path d="M153.447 563.77C151.767 563.77 151.021 563.21 151.207 562.09C151.721 560.083 152.141 558.053 152.467 556C152.841 553.9 153.027 551.893 153.027 549.98C153.027 547.507 152.864 545.71 152.537 544.59C152.257 543.423 151.861 542.63 151.347 542.21C150.834 541.743 150.204 541.393 149.457 541.16C149.131 541.02 148.827 540.833 148.547 540.6C148.314 540.367 148.197 540.04 148.197 539.62C148.197 538.967 148.454 538.243 148.967 537.45C149.481 536.657 150.204 535.98 151.137 535.42C152.117 534.813 153.214 534.51 154.427 534.51C156.014 534.51 157.111 535.07 157.717 536.19C158.324 537.263 158.627 538.687 158.627 540.46C158.627 541.627 158.511 542.933 158.277 544.38C158.044 545.827 157.811 547.133 157.577 548.3L157.787 548.37C158.721 545.897 159.841 543.61 161.147 541.51C162.501 539.363 164.064 537.637 165.837 536.33C167.611 535.023 169.664 534.37 171.997 534.37C174.471 534.37 176.361 535.117 177.667 536.61C178.974 538.103 179.627 539.97 179.627 542.21C179.627 543.143 179.511 544.03 179.277 544.87C179.091 545.71 178.881 546.527 178.647 547.32C178.414 548.067 178.204 548.837 178.017 549.63C177.877 550.423 177.807 551.217 177.807 552.01C177.807 554.67 179.067 556.467 181.587 557.4C182.241 557.68 182.567 558.1 182.567 558.66C182.567 559.08 182.427 559.687 182.147 560.48C181.867 561.273 181.354 562.02 180.607 562.72C179.861 563.373 178.764 563.7 177.317 563.7C175.451 563.7 174.004 563.047 172.977 561.74C171.951 560.387 171.437 558.683 171.437 556.63C171.437 555.463 171.554 554.297 171.787 553.13C172.067 551.917 172.347 550.797 172.627 549.77C172.814 548.977 172.977 548.207 173.117 547.46C173.304 546.667 173.397 545.967 173.397 545.36C173.397 543.213 172.277 542.14 170.037 542.14C168.124 542.14 166.444 542.863 164.997 544.31C163.551 545.71 162.314 547.483 161.287 549.63C160.261 551.777 159.421 553.947 158.767 556.14V557.82C158.767 559.547 158.277 560.97 157.297 562.09C156.364 563.21 155.081 563.77 153.447 563.77ZM197.276 563.91C194.43 563.91 192.376 562.977 191.116 561.11C189.903 559.197 189.296 556.747 189.296 553.76C189.296 552.687 189.343 551.637 189.436 550.61C189.576 549.583 189.716 548.557 189.856 547.53C189.996 546.503 190.136 545.5 190.276 544.52C190.416 543.54 190.533 542.607 190.626 541.72C189.646 542 188.666 542.14 187.686 542.14C186.66 542.14 186.146 541.72 186.146 540.88C186.146 539.993 186.543 538.92 187.336 537.66C188.13 536.353 189.11 535.07 190.276 533.81C191.49 532.55 192.68 531.5 193.846 530.66C195.06 529.773 196.086 529.33 196.926 529.33C197.953 529.33 198.466 530.217 198.466 531.99C198.466 532.457 198.42 532.947 198.326 533.46C198.28 533.927 198.21 534.417 198.116 534.93C199.003 534.743 199.89 534.58 200.776 534.44C201.71 534.3 202.596 534.23 203.436 534.23C204.51 534.23 205.326 534.417 205.886 534.79C206.493 535.163 206.796 535.887 206.796 536.96C206.796 538.08 206.516 539.2 205.956 540.32C205.443 541.44 204.86 542 204.206 542C204.066 542 203.833 541.977 203.506 541.93C203.18 541.883 202.783 541.813 202.316 541.72C201.71 541.58 200.94 541.44 200.006 541.3C199.073 541.16 197.953 541.09 196.646 541.09C196.32 542.537 196.016 544.03 195.736 545.57C195.503 547.063 195.386 548.417 195.386 549.63C195.386 552.337 196.063 554.18 197.416 555.16C198.77 556.14 200.73 556.63 203.296 556.63C204.09 556.63 204.65 556.77 204.976 557.05C205.303 557.283 205.466 557.727 205.466 558.38C205.466 559.92 204.673 561.227 203.086 562.3C201.5 563.373 199.563 563.91 197.276 563.91ZM221.564 563.91C219.277 563.91 217.154 563.583 215.194 562.93C213.28 562.23 211.74 561.273 210.574 560.06C209.407 558.847 208.824 557.423 208.824 555.79C208.824 554.717 209.08 553.783 209.594 552.99C210.107 552.15 210.807 551.73 211.694 551.73C212.254 551.73 212.837 551.94 213.444 552.36C214.61 553.387 216.104 554.297 217.924 555.09C219.79 555.837 221.774 556.21 223.874 556.21C226.627 556.21 228.867 555.673 230.594 554.6C232.367 553.48 233.254 551.987 233.254 550.12C233.254 548.347 232.437 547.063 230.804 546.27C229.17 545.477 226.907 544.73 224.014 544.03C221.867 543.517 219.79 542.863 217.784 542.07C215.824 541.277 214.19 540.18 212.884 538.78C211.624 537.333 210.994 535.42 210.994 533.04C210.994 531.22 211.39 529.423 212.184 527.65C212.977 525.83 214.144 524.173 215.684 522.68C217.224 521.187 219.09 519.997 221.284 519.11C223.477 518.177 225.95 517.71 228.704 517.71C230.757 517.71 232.624 517.943 234.304 518.41C236.03 518.877 237.384 519.53 238.364 520.37C239.39 521.21 239.904 522.237 239.904 523.45C239.904 524.383 239.647 525.2 239.134 525.9C238.62 526.6 238.014 527.16 237.314 527.58C236.614 527.953 236.007 528.14 235.494 528.14C235.027 528.14 234.397 527.93 233.604 527.51C232.297 526.81 230.827 526.273 229.194 525.9C227.607 525.48 226.207 525.27 224.994 525.27C222.707 525.27 220.84 525.783 219.394 526.81C217.994 527.79 217.294 528.957 217.294 530.31C217.294 531.803 218.18 533.063 219.954 534.09C221.774 535.07 225.017 536.12 229.684 537.24C232.857 538.08 235.33 539.247 237.104 540.74C238.877 542.187 239.764 544.497 239.764 547.67C239.764 550.517 238.994 553.177 237.454 555.65C235.96 558.123 233.837 560.13 231.084 561.67C228.377 563.163 225.204 563.91 221.564 563.91Z" fill="#38B40D"/>
<path d="M255.244 563.91C251.977 563.91 249.41 562.93 247.544 560.97C245.724 558.963 244.814 556.187 244.814 552.64C244.814 549.14 245.56 546.013 247.054 543.26C248.547 540.507 250.6 538.337 253.214 536.75C255.827 535.163 258.79 534.37 262.104 534.37C264.344 534.37 266.117 534.743 267.424 535.49C268.73 536.237 269.384 537.263 269.384 538.57C269.384 539.737 268.824 540.88 267.704 542C267.284 542.42 266.724 542.817 266.024 543.19C265.37 543.517 264.857 543.68 264.484 543.68C264.064 543.68 263.714 543.517 263.434 543.19C262.967 542.677 262.36 542.187 261.614 541.72C260.867 541.253 259.817 541.02 258.464 541.02C256.177 541.02 254.31 541.813 252.864 543.4C251.417 544.94 250.694 546.97 250.694 549.49C250.694 551.777 251.347 553.62 252.654 555.02C253.96 556.42 255.687 557.12 257.834 557.12C258.954 557.12 260.167 556.933 261.474 556.56C262.827 556.14 264.017 555.557 265.044 554.81C265.557 554.343 266.094 554.11 266.654 554.11C267.587 554.11 268.054 554.693 268.054 555.86C268.054 557.4 267.284 558.87 265.744 560.27C264.577 561.343 263.014 562.23 261.054 562.93C259.14 563.583 257.204 563.91 255.244 563.91ZM278.005 563.77C277.258 563.77 276.651 563.63 276.185 563.35C275.765 563.117 275.625 562.697 275.765 562.09C276.278 560.083 276.698 558.053 277.025 556C277.398 553.9 277.585 551.893 277.585 549.98C277.585 547.507 277.421 545.71 277.095 544.59C276.815 543.423 276.418 542.63 275.905 542.21C275.391 541.743 274.761 541.393 274.015 541.16C273.688 541.02 273.385 540.833 273.105 540.6C272.871 540.367 272.755 540.04 272.755 539.62C272.755 538.967 273.011 538.243 273.525 537.45C274.038 536.657 274.761 535.98 275.695 535.42C276.628 534.813 277.701 534.51 278.915 534.51C280.501 534.51 281.598 535.07 282.205 536.19C282.858 537.263 283.185 538.687 283.185 540.46C284.025 538.593 285.051 537.123 286.265 536.05C287.525 534.93 289.088 534.37 290.955 534.37C292.215 534.37 293.265 534.65 294.105 535.21C294.945 535.77 295.365 536.68 295.365 537.94C295.365 539.2 294.945 540.39 294.105 541.51C293.311 542.583 292.495 543.12 291.655 543.12C291.515 543.12 291.351 543.097 291.165 543.05C290.978 543.003 290.815 542.887 290.675 542.7C290.068 541.953 289.321 541.58 288.435 541.58C287.081 541.58 285.891 542.467 284.865 544.24C283.838 546.013 283.278 548.463 283.185 551.59C283.231 552.757 283.255 553.947 283.255 555.16C283.301 556.373 283.325 557.26 283.325 557.82C283.325 559.547 282.835 560.97 281.855 562.09C280.921 563.21 279.638 563.77 278.005 563.77ZM308.927 563.91C305.707 563.91 303.117 563.047 301.157 561.32C299.244 559.547 298.287 556.957 298.287 553.55C298.287 551.963 298.497 550.423 298.917 548.93C299.384 547.437 299.99 546.037 300.737 544.73C299.99 545.197 299.43 545.43 299.057 545.43C298.497 545.43 298.1 545.127 297.867 544.52C297.68 543.867 297.587 543.237 297.587 542.63C297.587 541.557 297.797 540.717 298.217 540.11C298.684 539.457 299.127 538.967 299.547 538.64C300.527 537.8 302.067 536.89 304.167 535.91C306.267 534.883 308.787 534.37 311.727 534.37C315.74 534.37 318.844 535.49 321.037 537.73C323.277 539.97 324.397 543.097 324.397 547.11C324.397 550.237 323.744 553.083 322.437 555.65C321.13 558.17 319.31 560.177 316.977 561.67C314.69 563.163 312.007 563.91 308.927 563.91ZM311.097 556.77C313.43 556.77 315.39 556.047 316.977 554.6C318.61 553.107 319.427 551.147 319.427 548.72C319.427 546.2 318.61 544.403 316.977 543.33C315.344 542.257 313.454 541.72 311.307 541.72C310.327 541.72 309.44 541.813 308.647 542C307.854 542.187 307.107 542.42 306.407 542.7C305.754 543.633 305.17 544.683 304.657 545.85C304.144 547.017 303.887 548.3 303.887 549.7C303.887 552.033 304.587 553.807 305.987 555.02C307.387 556.187 309.09 556.77 311.097 556.77Z" fill="#EEDA70"/>
<path d="M334.971 563.7C333.618 563.7 332.614 563.327 331.961 562.58C331.308 561.833 330.981 560.527 330.981 558.66C330.981 557.773 331.051 556.63 331.191 555.23C331.331 553.83 331.494 552.313 331.681 550.68C331.961 548.673 332.194 546.573 332.381 544.38C332.614 542.187 332.731 540.087 332.731 538.08C332.731 535.233 332.591 532.293 332.311 529.26C332.078 526.18 331.378 523.497 330.211 521.21C329.791 520.277 329.581 519.6 329.581 519.18C329.581 518.573 329.838 517.99 330.351 517.43C330.911 516.87 331.588 516.403 332.381 516.03C333.174 515.61 333.944 515.4 334.691 515.4C335.904 515.4 336.814 515.96 337.421 517.08C338.028 518.153 338.424 519.647 338.611 521.56C338.798 523.427 338.891 525.573 338.891 528C338.891 531.687 338.728 534.883 338.401 537.59C338.121 540.297 337.841 542.677 337.561 544.73C337.374 546.083 337.188 547.367 337.001 548.58C336.861 549.793 336.791 550.89 336.791 551.87C336.791 553.503 337.048 554.693 337.561 555.44C338.121 556.14 339.008 556.84 340.221 557.54C340.548 557.727 340.781 557.913 340.921 558.1C341.108 558.24 341.201 558.473 341.201 558.8C341.201 559.173 341.014 559.757 340.641 560.55C340.268 561.343 339.614 562.067 338.681 562.72C337.794 563.373 336.558 563.7 334.971 563.7ZM350.899 563.7C349.545 563.7 348.542 563.327 347.889 562.58C347.235 561.833 346.909 560.527 346.909 558.66C346.909 557.773 346.979 556.63 347.119 555.23C347.259 553.83 347.422 552.313 347.609 550.68C347.889 548.673 348.122 546.573 348.309 544.38C348.542 542.187 348.659 540.087 348.659 538.08C348.659 535.233 348.519 532.293 348.239 529.26C348.005 526.18 347.305 523.497 346.139 521.21C345.719 520.277 345.509 519.6 345.509 519.18C345.509 518.573 345.765 517.99 346.279 517.43C346.839 516.87 347.515 516.403 348.309 516.03C349.102 515.61 349.872 515.4 350.619 515.4C351.832 515.4 352.742 515.96 353.349 517.08C353.955 518.153 354.352 519.647 354.539 521.56C354.725 523.427 354.819 525.573 354.819 528C354.819 531.687 354.655 534.883 354.329 537.59C354.049 540.297 353.769 542.677 353.489 544.73C353.302 546.083 353.115 547.367 352.929 548.58C352.789 549.793 352.719 550.89 352.719 551.87C352.719 553.503 352.975 554.693 353.489 555.44C354.049 556.14 354.935 556.84 356.149 557.54C356.475 557.727 356.709 557.913 356.849 558.1C357.035 558.24 357.129 558.473 357.129 558.8C357.129 559.173 356.942 559.757 356.569 560.55C356.195 561.343 355.542 562.067 354.609 562.72C353.722 563.373 352.485 563.7 350.899 563.7ZM372.636 563.91C369.09 563.91 366.313 562.907 364.306 560.9C362.346 558.847 361.366 556 361.366 552.36C361.366 549.047 362.09 546.037 363.536 543.33C364.983 540.623 366.92 538.477 369.346 536.89C371.82 535.257 374.526 534.44 377.466 534.44C380.266 534.44 382.506 535.14 384.186 536.54C385.866 537.893 386.706 539.713 386.706 542C386.706 543.82 386.146 545.5 385.026 547.04C383.906 548.58 382.413 549.817 380.546 550.75C378.68 551.637 376.603 552.08 374.316 552.08C371.516 552.08 369.23 551.45 367.456 550.19C367.503 552.337 368.226 554.063 369.626 555.37C371.073 556.677 372.916 557.33 375.156 557.33C376.51 557.33 377.886 557.097 379.286 556.63C380.733 556.117 381.97 555.44 382.996 554.6C383.65 554.04 384.256 553.76 384.816 553.76C385.283 553.76 385.656 553.923 385.936 554.25C386.263 554.53 386.426 554.903 386.426 555.37C386.426 556.397 385.54 557.75 383.766 559.43C380.64 562.417 376.93 563.91 372.636 563.91ZM373.686 547.46C375.366 547.46 376.766 547.11 377.886 546.41C379.006 545.71 379.566 544.823 379.566 543.75C379.566 542.863 379.193 542.187 378.446 541.72C377.7 541.207 376.673 540.95 375.366 540.95C373.64 540.95 372.123 541.417 370.816 542.35C369.556 543.237 368.646 544.497 368.086 546.13C368.74 546.55 369.58 546.877 370.606 547.11C371.633 547.343 372.66 547.46 373.686 547.46ZM396.266 563.77C395.52 563.77 394.913 563.63 394.446 563.35C394.026 563.117 393.886 562.697 394.026 562.09C394.54 560.083 394.96 558.053 395.286 556C395.66 553.9 395.846 551.893 395.846 549.98C395.846 547.507 395.683 545.71 395.356 544.59C395.076 543.423 394.68 542.63 394.166 542.21C393.653 541.743 393.023 541.393 392.276 541.16C391.95 541.02 391.646 540.833 391.366 540.6C391.133 540.367 391.016 540.04 391.016 539.62C391.016 538.967 391.273 538.243 391.786 537.45C392.3 536.657 393.023 535.98 393.956 535.42C394.89 534.813 395.963 534.51 397.176 534.51C398.763 534.51 399.86 535.07 400.466 536.19C401.12 537.263 401.446 538.687 401.446 540.46C402.286 538.593 403.313 537.123 404.526 536.05C405.786 534.93 407.35 534.37 409.216 534.37C410.476 534.37 411.526 534.65 412.366 535.21C413.206 535.77 413.626 536.68 413.626 537.94C413.626 539.2 413.206 540.39 412.366 541.51C411.573 542.583 410.756 543.12 409.916 543.12C409.776 543.12 409.613 543.097 409.426 543.05C409.24 543.003 409.076 542.887 408.936 542.7C408.33 541.953 407.583 541.58 406.696 541.58C405.343 541.58 404.153 542.467 403.126 544.24C402.1 546.013 401.54 548.463 401.446 551.59C401.493 552.757 401.516 553.947 401.516 555.16C401.563 556.373 401.586 557.26 401.586 557.82C401.586 559.547 401.096 560.97 400.116 562.09C399.183 563.21 397.9 563.77 396.266 563.77Z" fill="white"/>
</g>
<defs>
<clipPath id="clip0_49_1842">
<rect width="467" height="752" fill="white"/>
</clipPath>
</defs>
</svg>
