<svg width="467" height="89" viewBox="0 0 467 89" fill="none" xmlns="http://www.w3.org/2000/svg">
<g clip-path="url(#clip0_49_1842)">
<path fill-rule="evenodd" clip-rule="evenodd" d="M42.3315 8C37.9093 8.00329 34.3302 11.6143 34.3335 16.064C34.3302 20.5137 37.9125 24.1247 42.3348 24.128H50.3361V16.0673C50.3394 11.6176 46.7571 8.00658 42.3315 8C42.3348 8 42.3348 8 42.3315 8V8ZM42.3315 29.5084H21.0013C16.579 29.5117 12.9967 33.1227 13 37.5724C12.9935 42.0221 16.5757 45.6331 20.998 45.6397H42.3315C46.7538 45.6364 50.3361 42.0254 50.3328 37.5757C50.3361 33.1227 46.7538 29.5117 42.3315 29.5084V29.5084Z" fill="#3BBBF2"/>
<path fill-rule="evenodd" clip-rule="evenodd" d="M93 37.5724C93.0033 33.1227 89.421 29.5117 84.9987 29.5084C80.5764 29.5117 76.9941 33.1227 76.9974 37.5724V45.6397H84.9987C89.421 45.6364 93.0033 42.0254 93 37.5724ZM71.6664 37.5724V16.064C71.6697 11.6176 68.0907 8.00658 63.6684 8C59.2461 8.00329 55.6638 11.6143 55.6671 16.064V37.5724C55.6605 42.0221 59.2428 45.6331 63.6651 45.6397C68.0874 45.6364 71.6697 42.0254 71.6664 37.5724Z" fill="#38B40D"/>
<path fill-rule="evenodd" clip-rule="evenodd" d="M63.665 88.6567C68.0873 88.6534 71.6696 85.0423 71.6663 80.5927C71.6696 76.143 68.0873 72.5319 63.665 72.5286H55.6638V80.5927C55.6605 85.039 59.2428 88.6501 63.665 88.6567ZM63.665 67.145H84.9986C89.4208 67.1417 93.0031 63.5306 92.9999 59.081C93.0064 54.6313 89.4241 51.0202 85.0018 51.0137H63.6683C59.246 51.017 55.6638 54.628 55.667 59.0777C55.6638 63.5306 59.2428 67.1417 63.665 67.145V67.145Z" fill="#EEDA70"/>
<path fill-rule="evenodd" clip-rule="evenodd" d="M13 59.0806C12.9967 63.5303 16.579 67.1414 21.0013 67.1447C25.4236 67.1414 29.0059 63.5303 29.0026 59.0806V51.0166H21.0013C16.579 51.0199 12.9967 54.6309 13 59.0806ZM34.3335 59.0806V80.5891C34.327 85.0388 37.9093 88.6498 42.3316 88.6564C46.7539 88.6531 50.3362 85.0421 50.3329 80.5924V59.0872C50.3394 54.6375 46.7571 51.0265 42.3349 51.0199C37.9093 51.0199 34.3303 54.6309 34.3335 59.0806C34.3335 59.0839 34.3335 59.0806 34.3335 59.0806Z" fill="white"/>
<path d="M133.05 59.65C129.883 59.65 127.533 59.15 126 58.15C124.5 57.1167 123.75 55.2 123.75 52.4C123.75 51.8333 123.783 51.15 123.85 50.35C123.95 49.55 124.083 48.5833 124.25 47.45C124.516 45.8167 124.716 44.3667 124.85 43.1C124.983 41.8 125.05 40.3833 125.05 38.85C125.05 37.85 125.016 36.8833 124.95 35.95C124.916 35.0167 124.833 34.1333 124.7 33.3C124.2 33.4 123.866 33.45 123.7 33.45C123.433 33.45 123.25 33.4 123.15 33.3C123.05 33.1667 123 32.9333 123 32.6C123 31.9 123.083 31.2167 123.25 30.55C123.416 29.85 123.65 29.2833 123.95 28.85C124.516 28.05 125.383 27.5833 126.55 27.45C127.45 27.35 128.55 27.25 129.85 27.15C131.183 27.05 132.533 26.9833 133.9 26.95C135.3 26.8833 136.55 26.85 137.65 26.85C140.716 26.85 142.533 26.9167 143.1 27.05C143.966 27.1833 144.4 27.65 144.4 28.45C144.4 29.45 144.05 30.3667 143.35 31.2C142.983 31.7 142.616 32.0667 142.25 32.3C141.883 32.5 141.366 32.5833 140.7 32.55C139.233 32.45 137.95 32.3833 136.85 32.35C135.75 32.3167 134.983 32.3 134.55 32.3C133.783 32.3 132.983 32.3167 132.15 32.35C131.35 32.3833 130.533 32.4333 129.7 32.5C129.7 33.6667 129.65 34.9167 129.55 36.25C129.45 37.5833 129.316 38.9833 129.15 40.45C130.683 40.35 132.416 40.2833 134.35 40.25C136.283 40.1833 138 40.15 139.5 40.15C140.166 40.15 140.616 40.2167 140.85 40.35C141.116 40.4833 141.25 40.8333 141.25 41.4C141.25 41.9333 141.1 42.5333 140.8 43.2C140.533 43.8333 140.166 44.3833 139.7 44.85C139.5 45.05 139.283 45.2167 139.05 45.35C138.816 45.45 138.5 45.4833 138.1 45.45C136.666 45.3833 135.033 45.3333 133.2 45.3C131.4 45.2667 129.816 45.2667 128.45 45.3C128.316 46.0667 128.216 46.7667 128.15 47.4C128.083 48.0333 128.05 48.6 128.05 49.1C128.05 50.9333 128.516 52.2167 129.45 52.95C130.383 53.6833 131.916 54.05 134.05 54.05C135.35 54.05 136.6 53.9333 137.8 53.7C139.033 53.4667 140.283 53.0333 141.55 52.4C142.016 52.1333 142.366 52 142.6 52C142.966 52 143.316 52.2667 143.65 52.8C144.016 53.3 144.2 53.85 144.2 54.45C144.2 55.1833 143.916 55.8833 143.35 56.55C142.816 57.1833 142.1 57.7333 141.2 58.2C140.166 58.6667 138.933 59.0167 137.5 59.25C136.066 59.5167 134.583 59.65 133.05 59.65ZM153.579 59.7C152.679 59.7 151.896 59.4333 151.229 58.9C150.596 58.3333 150.212 57.3 150.079 55.8C150.012 54.6667 149.862 53.4167 149.629 52.05C149.429 50.6833 149.162 49.3833 148.829 48.15C148.496 46.9167 148.112 45.95 147.679 45.25C147.446 44.8833 147.179 44.6167 146.879 44.45C146.612 44.25 146.196 44.1167 145.629 44.05C145.262 44.0167 145.012 43.9 144.879 43.7C144.746 43.5 144.679 43.1833 144.679 42.75C144.679 41.3833 145.046 40.3833 145.779 39.75C146.546 39.0833 147.412 38.75 148.379 38.75C149.379 38.75 150.212 39.0833 150.879 39.75C151.546 40.3833 152.062 41.2333 152.429 42.3C152.796 43.3667 153.046 44.55 153.179 45.85C153.346 47.1167 153.429 48.4 153.429 49.7C153.429 50.2333 153.412 50.8 153.379 51.4C153.379 51.9667 153.379 52.45 153.379 52.85C153.379 53.2167 153.446 53.5 153.579 53.7C153.746 53.9 154.046 54 154.479 54C155.012 54 155.629 53.85 156.329 53.55C157.029 53.2167 157.712 52.75 158.379 52.15C159.079 51.55 159.646 50.85 160.079 50.05C160.546 49.2167 160.779 48.3 160.779 47.3C160.779 46.7333 160.679 46.1333 160.479 45.5C160.312 44.8667 160.029 44.3333 159.629 43.9C159.229 43.4667 158.929 43.1333 158.729 42.9C158.562 42.6333 158.479 42.3333 158.479 42C158.479 41.4 158.746 40.85 159.279 40.35C159.846 39.85 160.496 39.45 161.229 39.15C161.996 38.85 162.662 38.7 163.229 38.7C164.196 38.7 164.812 39.1 165.079 39.9C165.346 40.7 165.479 41.5833 165.479 42.55C165.479 44.3833 165.146 46.3 164.479 48.3C163.812 50.3 162.912 52.1667 161.779 53.9C160.646 55.6333 159.362 57.0333 157.929 58.1C156.529 59.1667 155.079 59.7 153.579 59.7ZM176.498 59.65C173.965 59.65 171.981 58.9333 170.548 57.5C169.148 56.0333 168.448 54 168.448 51.4C168.448 49.0333 168.965 46.8833 169.998 44.95C171.031 43.0167 172.415 41.4833 174.148 40.35C175.915 39.1833 177.848 38.6 179.948 38.6C181.948 38.6 183.548 39.1 184.748 40.1C185.948 41.0667 186.548 42.3667 186.548 44C186.548 45.3 186.148 46.5 185.348 47.6C184.548 48.7 183.481 49.5833 182.148 50.25C180.815 50.8833 179.331 51.2 177.698 51.2C175.698 51.2 174.065 50.75 172.798 49.85C172.831 51.3833 173.348 52.6167 174.348 53.55C175.381 54.4833 176.698 54.95 178.298 54.95C179.265 54.95 180.248 54.7833 181.248 54.45C182.281 54.0833 183.165 53.6 183.898 53C184.365 52.6 184.798 52.4 185.198 52.4C185.531 52.4 185.798 52.5167 185.998 52.75C186.231 52.95 186.348 53.2167 186.348 53.55C186.348 54.2833 185.715 55.25 184.448 56.45C182.215 58.5833 179.565 59.65 176.498 59.65ZM177.248 47.9C178.448 47.9 179.448 47.65 180.248 47.15C181.048 46.65 181.448 46.0167 181.448 45.25C181.448 44.6167 181.181 44.1333 180.648 43.8C180.115 43.4333 179.381 43.25 178.448 43.25C177.215 43.25 176.131 43.5833 175.198 44.25C174.298 44.8833 173.648 45.7833 173.248 46.95C173.715 47.25 174.315 47.4833 175.048 47.65C175.781 47.8167 176.515 47.9 177.248 47.9Z" fill="#3BBBF2"/>
<path d="M193.177 59.55C191.977 59.55 191.443 59.15 191.577 58.35C191.943 56.9167 192.243 55.4667 192.477 54C192.743 52.5 192.877 51.0667 192.877 49.7C192.877 47.9333 192.76 46.65 192.527 45.85C192.327 45.0167 192.043 44.45 191.677 44.15C191.31 43.8167 190.86 43.5667 190.327 43.4C190.093 43.3 189.877 43.1667 189.677 43C189.51 42.8333 189.427 42.6 189.427 42.3C189.427 41.8333 189.61 41.3167 189.977 40.75C190.343 40.1833 190.86 39.7 191.527 39.3C192.227 38.8667 193.01 38.65 193.877 38.65C195.01 38.65 195.793 39.05 196.227 39.85C196.66 40.6167 196.877 41.6333 196.877 42.9C196.877 43.7333 196.793 44.6667 196.627 45.7C196.46 46.7333 196.293 47.6667 196.127 48.5L196.277 48.55C196.943 46.7833 197.743 45.15 198.677 43.65C199.643 42.1167 200.76 40.8833 202.027 39.95C203.293 39.0167 204.76 38.55 206.427 38.55C208.193 38.55 209.543 39.0833 210.477 40.15C211.41 41.2167 211.877 42.55 211.877 44.15C211.877 44.8167 211.793 45.45 211.627 46.05C211.493 46.65 211.343 47.2333 211.177 47.8C211.01 48.3333 210.86 48.8833 210.727 49.45C210.627 50.0167 210.577 50.5833 210.577 51.15C210.577 53.05 211.477 54.3333 213.277 55C213.743 55.2 213.977 55.5 213.977 55.9C213.977 56.2 213.877 56.6333 213.677 57.2C213.477 57.7667 213.11 58.3 212.577 58.8C212.043 59.2667 211.26 59.5 210.227 59.5C208.893 59.5 207.86 59.0333 207.127 58.1C206.393 57.1333 206.027 55.9167 206.027 54.45C206.027 53.6167 206.11 52.7833 206.277 51.95C206.477 51.0833 206.677 50.2833 206.877 49.55C207.01 48.9833 207.127 48.4333 207.227 47.9C207.36 47.3333 207.427 46.8333 207.427 46.4C207.427 44.8667 206.627 44.1 205.027 44.1C203.66 44.1 202.46 44.6167 201.427 45.65C200.393 46.65 199.51 47.9167 198.777 49.45C198.043 50.9833 197.443 52.5333 196.977 54.1V55.3C196.977 56.5333 196.627 57.55 195.927 58.35C195.26 59.15 194.343 59.55 193.177 59.55ZM224.483 59.65C222.45 59.65 220.983 58.9833 220.083 57.65C219.217 56.2833 218.783 54.5333 218.783 52.4C218.783 51.6333 218.817 50.8833 218.883 50.15C218.983 49.4167 219.083 48.6833 219.183 47.95C219.283 47.2167 219.383 46.5 219.483 45.8C219.583 45.1 219.667 44.4333 219.733 43.8C219.033 44 218.333 44.1 217.633 44.1C216.9 44.1 216.533 43.8 216.533 43.2C216.533 42.5667 216.817 41.8 217.383 40.9C217.95 39.9667 218.65 39.05 219.483 38.15C220.35 37.25 221.2 36.5 222.033 35.9C222.9 35.2667 223.633 34.95 224.233 34.95C224.967 34.95 225.333 35.5833 225.333 36.85C225.333 37.1833 225.3 37.5333 225.233 37.9C225.2 38.2333 225.15 38.5833 225.083 38.95C225.717 38.8167 226.35 38.7 226.983 38.6C227.65 38.5 228.283 38.45 228.883 38.45C229.65 38.45 230.233 38.5833 230.633 38.85C231.067 39.1167 231.283 39.6333 231.283 40.4C231.283 41.2 231.083 42 230.683 42.8C230.317 43.6 229.9 44 229.433 44C229.333 44 229.167 43.9833 228.933 43.95C228.7 43.9167 228.417 43.8667 228.083 43.8C227.65 43.7 227.1 43.6 226.433 43.5C225.767 43.4 224.967 43.35 224.033 43.35C223.8 44.3833 223.583 45.45 223.383 46.55C223.217 47.6167 223.133 48.5833 223.133 49.45C223.133 51.3833 223.617 52.7 224.583 53.4C225.55 54.1 226.95 54.45 228.783 54.45C229.35 54.45 229.75 54.55 229.983 54.75C230.217 54.9167 230.333 55.2333 230.333 55.7C230.333 56.8 229.767 57.7333 228.633 58.5C227.5 59.2667 226.117 59.65 224.483 59.65ZM241.831 59.65C240.198 59.65 238.681 59.4167 237.281 58.95C235.915 58.45 234.815 57.7667 233.981 56.9C233.148 56.0333 232.731 55.0167 232.731 53.85C232.731 53.0833 232.915 52.4167 233.281 51.85C233.648 51.25 234.148 50.95 234.781 50.95C235.181 50.95 235.598 51.1 236.031 51.4C236.865 52.1333 237.931 52.7833 239.231 53.35C240.565 53.8833 241.981 54.15 243.481 54.15C245.448 54.15 247.048 53.7667 248.281 53C249.548 52.2 250.181 51.1333 250.181 49.8C250.181 48.5333 249.598 47.6167 248.431 47.05C247.265 46.4833 245.648 45.95 243.581 45.45C242.048 45.0833 240.565 44.6167 239.131 44.05C237.731 43.4833 236.565 42.7 235.631 41.7C234.731 40.6667 234.281 39.3 234.281 37.6C234.281 36.3 234.565 35.0167 235.131 33.75C235.698 32.45 236.531 31.2667 237.631 30.2C238.731 29.1333 240.065 28.2833 241.631 27.65C243.198 26.9833 244.965 26.65 246.931 26.65C248.398 26.65 249.731 26.8167 250.931 27.15C252.165 27.4833 253.131 27.95 253.831 28.55C254.565 29.15 254.931 29.8833 254.931 30.75C254.931 31.4167 254.748 32 254.381 32.5C254.015 33 253.581 33.4 253.081 33.7C252.581 33.9667 252.148 34.1 251.781 34.1C251.448 34.1 250.998 33.95 250.431 33.65C249.498 33.15 248.448 32.7667 247.281 32.5C246.148 32.2 245.148 32.05 244.281 32.05C242.648 32.05 241.315 32.4167 240.281 33.15C239.281 33.85 238.781 34.6833 238.781 35.65C238.781 36.7167 239.415 37.6167 240.681 38.35C241.981 39.05 244.298 39.8 247.631 40.6C249.898 41.2 251.665 42.0333 252.931 43.1C254.198 44.1333 254.831 45.7833 254.831 48.05C254.831 50.0833 254.281 51.9833 253.181 53.75C252.115 55.5167 250.598 56.95 248.631 58.05C246.698 59.1167 244.431 59.65 241.831 59.65Z" fill="#38B40D"/>
<path d="M265.888 59.65C263.555 59.65 261.722 58.95 260.388 57.55C259.088 56.1167 258.438 54.1333 258.438 51.6C258.438 49.1 258.972 46.8667 260.038 44.9C261.105 42.9333 262.572 41.3833 264.438 40.25C266.305 39.1167 268.422 38.55 270.788 38.55C272.388 38.55 273.655 38.8167 274.588 39.35C275.522 39.8833 275.988 40.6167 275.988 41.55C275.988 42.3833 275.588 43.2 274.788 44C274.488 44.3 274.088 44.5833 273.588 44.85C273.122 45.0833 272.755 45.2 272.488 45.2C272.188 45.2 271.938 45.0833 271.738 44.85C271.405 44.4833 270.972 44.1333 270.438 43.8C269.905 43.4667 269.155 43.3 268.188 43.3C266.555 43.3 265.222 43.8667 264.188 45C263.155 46.1 262.638 47.55 262.638 49.35C262.638 50.9833 263.105 52.3 264.038 53.3C264.972 54.3 266.205 54.8 267.738 54.8C268.538 54.8 269.405 54.6667 270.338 54.4C271.305 54.1 272.155 53.6833 272.888 53.15C273.255 52.8167 273.638 52.65 274.038 52.65C274.705 52.65 275.038 53.0667 275.038 53.9C275.038 55 274.488 56.05 273.388 57.05C272.555 57.8167 271.438 58.45 270.038 58.95C268.672 59.4167 267.288 59.65 265.888 59.65ZM282.146 59.55C281.613 59.55 281.179 59.45 280.846 59.25C280.546 59.0833 280.446 58.7833 280.546 58.35C280.913 56.9167 281.213 55.4667 281.446 54C281.713 52.5 281.846 51.0667 281.846 49.7C281.846 47.9333 281.729 46.65 281.496 45.85C281.296 45.0167 281.013 44.45 280.646 44.15C280.279 43.8167 279.829 43.5667 279.296 43.4C279.063 43.3 278.846 43.1667 278.646 43C278.479 42.8333 278.396 42.6 278.396 42.3C278.396 41.8333 278.579 41.3167 278.946 40.75C279.313 40.1833 279.829 39.7 280.496 39.3C281.163 38.8667 281.929 38.65 282.796 38.65C283.929 38.65 284.713 39.05 285.146 39.85C285.613 40.6167 285.846 41.6333 285.846 42.9C286.446 41.5667 287.179 40.5167 288.046 39.75C288.946 38.95 290.063 38.55 291.396 38.55C292.296 38.55 293.046 38.75 293.646 39.15C294.246 39.55 294.546 40.2 294.546 41.1C294.546 42 294.246 42.85 293.646 43.65C293.079 44.4167 292.496 44.8 291.896 44.8C291.796 44.8 291.679 44.7833 291.546 44.75C291.413 44.7167 291.296 44.6333 291.196 44.5C290.763 43.9667 290.229 43.7 289.596 43.7C288.629 43.7 287.779 44.3333 287.046 45.6C286.313 46.8667 285.913 48.6167 285.846 50.85C285.879 51.6833 285.896 52.5333 285.896 53.4C285.929 54.2667 285.946 54.9 285.946 55.3C285.946 56.5333 285.596 57.55 284.896 58.35C284.229 59.15 283.313 59.55 282.146 59.55ZM304.234 59.65C301.934 59.65 300.084 59.0333 298.684 57.8C297.317 56.5333 296.634 54.6833 296.634 52.25C296.634 51.1167 296.784 50.0167 297.084 48.95C297.417 47.8833 297.85 46.8833 298.384 45.95C297.85 46.2833 297.45 46.45 297.184 46.45C296.784 46.45 296.5 46.2333 296.334 45.8C296.2 45.3333 296.134 44.8833 296.134 44.45C296.134 43.6833 296.284 43.0833 296.584 42.65C296.917 42.1833 297.234 41.8333 297.534 41.6C298.234 41 299.334 40.35 300.834 39.65C302.334 38.9167 304.134 38.55 306.234 38.55C309.1 38.55 311.317 39.35 312.884 40.95C314.484 42.55 315.284 44.7833 315.284 47.65C315.284 49.8833 314.817 51.9167 313.884 53.75C312.95 55.55 311.65 56.9833 309.984 58.05C308.35 59.1167 306.434 59.65 304.234 59.65ZM305.784 54.55C307.45 54.55 308.85 54.0333 309.984 53C311.15 51.9333 311.734 50.5333 311.734 48.8C311.734 47 311.15 45.7167 309.984 44.95C308.817 44.1833 307.467 43.8 305.934 43.8C305.234 43.8 304.6 43.8667 304.034 44C303.467 44.1333 302.934 44.3 302.434 44.5C301.967 45.1667 301.55 45.9167 301.184 46.75C300.817 47.5833 300.634 48.5 300.634 49.5C300.634 51.1667 301.134 52.4333 302.134 53.3C303.134 54.1333 304.35 54.55 305.784 54.55Z" fill="#EEDA70"/>
<path d="M322.836 59.5C321.87 59.5 321.153 59.2333 320.686 58.7C320.22 58.1667 319.986 57.2333 319.986 55.9C319.986 55.2667 320.036 54.45 320.136 53.45C320.236 52.45 320.353 51.3667 320.486 50.2C320.686 48.7667 320.853 47.2667 320.986 45.7C321.153 44.1333 321.236 42.6333 321.236 41.2C321.236 39.1667 321.136 37.0667 320.936 34.9C320.77 32.7 320.27 30.7833 319.436 29.15C319.136 28.4833 318.986 28 318.986 27.7C318.986 27.2667 319.17 26.85 319.536 26.45C319.936 26.05 320.42 25.7167 320.986 25.45C321.553 25.15 322.103 25 322.636 25C323.503 25 324.153 25.4 324.586 26.2C325.02 26.9667 325.303 28.0333 325.436 29.4C325.57 30.7333 325.636 32.2667 325.636 34C325.636 36.6333 325.52 38.9167 325.286 40.85C325.086 42.7833 324.886 44.4833 324.686 45.95C324.553 46.9167 324.42 47.8333 324.286 48.7C324.186 49.5667 324.136 50.35 324.136 51.05C324.136 52.2167 324.32 53.0667 324.686 53.6C325.086 54.1 325.72 54.6 326.586 55.1C326.82 55.2333 326.986 55.3667 327.086 55.5C327.22 55.6 327.286 55.7667 327.286 56C327.286 56.2667 327.153 56.6833 326.886 57.25C326.62 57.8167 326.153 58.3333 325.486 58.8C324.853 59.2667 323.97 59.5 322.836 59.5ZM334.213 59.5C333.247 59.5 332.53 59.2333 332.063 58.7C331.597 58.1667 331.363 57.2333 331.363 55.9C331.363 55.2667 331.413 54.45 331.513 53.45C331.613 52.45 331.73 51.3667 331.863 50.2C332.063 48.7667 332.23 47.2667 332.363 45.7C332.53 44.1333 332.613 42.6333 332.613 41.2C332.613 39.1667 332.513 37.0667 332.313 34.9C332.147 32.7 331.647 30.7833 330.813 29.15C330.513 28.4833 330.363 28 330.363 27.7C330.363 27.2667 330.547 26.85 330.913 26.45C331.313 26.05 331.797 25.7167 332.363 25.45C332.93 25.15 333.48 25 334.013 25C334.88 25 335.53 25.4 335.963 26.2C336.397 26.9667 336.68 28.0333 336.813 29.4C336.947 30.7333 337.013 32.2667 337.013 34C337.013 36.6333 336.897 38.9167 336.663 40.85C336.463 42.7833 336.263 44.4833 336.063 45.95C335.93 46.9167 335.797 47.8333 335.663 48.7C335.563 49.5667 335.513 50.35 335.513 51.05C335.513 52.2167 335.697 53.0667 336.063 53.6C336.463 54.1 337.097 54.6 337.963 55.1C338.197 55.2333 338.363 55.3667 338.463 55.5C338.597 55.6 338.663 55.7667 338.663 56C338.663 56.2667 338.53 56.6833 338.263 57.25C337.997 57.8167 337.53 58.3333 336.863 58.8C336.23 59.2667 335.347 59.5 334.213 59.5ZM349.74 59.65C347.207 59.65 345.224 58.9333 343.79 57.5C342.39 56.0333 341.69 54 341.69 51.4C341.69 49.0333 342.207 46.8833 343.24 44.95C344.274 43.0167 345.657 41.4833 347.39 40.35C349.157 39.1833 351.09 38.6 353.19 38.6C355.19 38.6 356.79 39.1 357.99 40.1C359.19 41.0667 359.79 42.3667 359.79 44C359.79 45.3 359.39 46.5 358.59 47.6C357.79 48.7 356.724 49.5833 355.39 50.25C354.057 50.8833 352.574 51.2 350.94 51.2C348.94 51.2 347.307 50.75 346.04 49.85C346.074 51.3833 346.59 52.6167 347.59 53.55C348.624 54.4833 349.94 54.95 351.54 54.95C352.507 54.95 353.49 54.7833 354.49 54.45C355.524 54.0833 356.407 53.6 357.14 53C357.607 52.6 358.04 52.4 358.44 52.4C358.774 52.4 359.04 52.5167 359.24 52.75C359.474 52.95 359.59 53.2167 359.59 53.55C359.59 54.2833 358.957 55.25 357.69 56.45C355.457 58.5833 352.807 59.65 349.74 59.65ZM350.49 47.9C351.69 47.9 352.69 47.65 353.49 47.15C354.29 46.65 354.69 46.0167 354.69 45.25C354.69 44.6167 354.424 44.1333 353.89 43.8C353.357 43.4333 352.624 43.25 351.69 43.25C350.457 43.25 349.374 43.5833 348.44 44.25C347.54 44.8833 346.89 45.7833 346.49 46.95C346.957 47.25 347.557 47.4833 348.29 47.65C349.024 47.8167 349.757 47.9 350.49 47.9ZM366.619 59.55C366.085 59.55 365.652 59.45 365.319 59.25C365.019 59.0833 364.919 58.7833 365.019 58.35C365.385 56.9167 365.685 55.4667 365.919 54C366.185 52.5 366.319 51.0667 366.319 49.7C366.319 47.9333 366.202 46.65 365.969 45.85C365.769 45.0167 365.485 44.45 365.119 44.15C364.752 43.8167 364.302 43.5667 363.769 43.4C363.535 43.3 363.319 43.1667 363.119 43C362.952 42.8333 362.869 42.6 362.869 42.3C362.869 41.8333 363.052 41.3167 363.419 40.75C363.785 40.1833 364.302 39.7 364.969 39.3C365.635 38.8667 366.402 38.65 367.269 38.65C368.402 38.65 369.185 39.05 369.619 39.85C370.085 40.6167 370.319 41.6333 370.319 42.9C370.919 41.5667 371.652 40.5167 372.519 39.75C373.419 38.95 374.535 38.55 375.869 38.55C376.769 38.55 377.519 38.75 378.119 39.15C378.719 39.55 379.019 40.2 379.019 41.1C379.019 42 378.719 42.85 378.119 43.65C377.552 44.4167 376.969 44.8 376.369 44.8C376.269 44.8 376.152 44.7833 376.019 44.75C375.885 44.7167 375.769 44.6333 375.669 44.5C375.235 43.9667 374.702 43.7 374.069 43.7C373.102 43.7 372.252 44.3333 371.519 45.6C370.785 46.8667 370.385 48.6167 370.319 50.85C370.352 51.6833 370.369 52.5333 370.369 53.4C370.402 54.2667 370.419 54.9 370.419 55.3C370.419 56.5333 370.069 57.55 369.369 58.35C368.702 59.15 367.785 59.55 366.619 59.55Z" fill="white"/>
</g>
<defs>
<clipPath id="clip0_49_1842">
<rect width="467" height="89" fill="white"/>
</clipPath>
</defs>
</svg>
