<svg width="80" height="81" viewBox="0 0 80 81" fill="none" xmlns="http://www.w3.org/2000/svg">
<path fill-rule="evenodd" clip-rule="evenodd" d="M29.3315 0C24.9093 0.00328875 21.3302 3.61433 21.3335 8.06401C21.3302 12.5137 24.9125 16.1247 29.3348 16.128H37.3361V8.0673C37.3394 3.61762 33.7571 0.00657749 29.3315 0C29.3348 0 29.3348 0 29.3315 0V0ZM29.3315 21.5084H8.0013C3.57902 21.5117 -0.00325957 25.1227 8.93241e-06 29.5724C-0.00652807 34.0221 3.57575 37.6331 7.99803 37.6397H29.3315C33.7538 37.6364 37.3361 34.0254 37.3328 29.5757C37.3361 25.1227 33.7538 21.5117 29.3315 21.5084Z" fill="#3BBBF2"/>
<path fill-rule="evenodd" clip-rule="evenodd" d="M80 29.5724C80.0033 25.1227 76.421 21.5117 71.9987 21.5084C67.5764 21.5117 63.9941 25.1227 63.9974 29.5724V37.6397H71.9987C76.421 37.6364 80.0033 34.0254 80 29.5724ZM58.6664 29.5724V8.06401C58.6697 3.61762 55.0907 0.00657749 50.6684 0C46.2461 0.00328875 42.6638 3.61433 42.6671 8.06401V29.5724C42.6605 34.0221 46.2428 37.6331 50.6651 37.6397C55.0874 37.6364 58.6697 34.0254 58.6664 29.5724Z" fill="#38B40D"/>
<path fill-rule="evenodd" clip-rule="evenodd" d="M50.665 80.6567C55.0873 80.6534 58.6696 77.0423 58.6663 72.5927C58.6696 68.143 55.0873 64.5319 50.665 64.5286H42.6638V72.5927C42.6605 77.039 46.2428 80.6501 50.665 80.6567ZM50.665 59.145H71.9986C76.4208 59.1417 80.0031 55.5306 79.9999 51.081C80.0064 46.6313 76.4241 43.0202 72.0018 43.0137H50.6683C46.246 43.017 42.6638 46.628 42.667 51.0777C42.6638 55.5306 46.2428 59.1417 50.665 59.145Z" fill="#EEDA70"/>
<path fill-rule="evenodd" clip-rule="evenodd" d="M2.23488e-06 51.0806C-0.00326627 55.5303 3.57902 59.1414 8.00131 59.1447C12.4236 59.1414 16.0059 55.5303 16.0026 51.0806V43.0166H8.00131C3.57902 43.0199 -0.00326627 46.6309 2.23488e-06 51.0806ZM21.3335 51.0806V72.5891C21.327 77.0388 24.9093 80.6498 29.3316 80.6564C33.7539 80.6531 37.3362 77.0421 37.3329 72.5924V51.0872C37.3394 46.6375 33.7571 43.0265 29.3349 43.0199C24.9093 43.0199 21.3303 46.6309 21.3335 51.0806C21.3335 51.0806 21.3335 51.0839 21.3335 51.0806Z" fill="white"/>
</svg>
